<svg xmlns="http://www.w3.org/2000/svg" width="1724" height="750.001" viewBox="0 0 1724 750.001">
  <g id="Grupo_2" data-name="Grupo 2" transform="translate(-389 -875)">
    <g id="Grupo_1" data-name="Grupo 1" transform="translate(-80 1625)">
      <path id="Subtração_1" data-name="Subtração 1" d="M250,595h0a251.85,251.85,0,0,1-50.384-5.079A248.628,248.628,0,0,1,110.223,552.3,250.729,250.729,0,0,1,19.646,442.311,248.748,248.748,0,0,1,5.079,395.384a252.44,252.44,0,0,1,0-100.767A248.631,248.631,0,0,1,42.7,205.223a250.729,250.729,0,0,1,109.993-90.576,248.741,248.741,0,0,1,46.928-14.567A251.855,251.855,0,0,1,250,95V595Z" transform="translate(469 -845)" fill="#03a9f4"/>
      <path id="Subtração_2" data-name="Subtração 2" d="M250,595h0a251.85,251.85,0,0,1-50.384-5.079A248.628,248.628,0,0,1,110.223,552.3,250.729,250.729,0,0,1,19.646,442.311,248.748,248.748,0,0,1,5.079,395.384a252.44,252.44,0,0,1,0-100.767A248.631,248.631,0,0,1,42.7,205.223a250.729,250.729,0,0,1,109.993-90.576,248.741,248.741,0,0,1,46.928-14.567A251.855,251.855,0,0,1,250,95V595Z" transform="translate(969 95.001) rotate(180)" fill="#1a237e"/>
    </g>
    <text id="Stagia" transform="translate(1039 1370)" fill="#212121" font-size="350" font-family="Gilroy-ExtraBold, Gilroy" font-weight="800"><tspan x="0" y="0">Stagia</tspan></text>
  </g>
</svg>
